<svg xmlns="http://www.w3.org/2000/svg" data-name="Filled Outline" viewBox="0 0 128 128"><path fill="#ebebf2" d="M105.64,66.319c11.8,5.287,19.19,12.819,19.19,21.188,0,16-26.98,28.977-60.25,28.977S4.319,103.511,4.319,87.507c0-8.369,7.385-15.9,19.19-21.188Z"/><path fill="#c4c4c6" d="M98.633 92.257l2.855 6.411A6.774 6.774 0 0 0 112.065 94a6.748 6.748 0 0 0-2-5.747 1.626 1.626 0 0 1 .2-2.513L121.49 78a30.154 30.154 0 0 0-7.276-6.9v0q-1.845-1.288-3.96-2.475l-.077-.045c-.63-.351-1.283-.693-1.947-1.03-.1-.05-.193-.1-.294-.153q-1.116-.558-2.3-1.087H96.4l8.271 20.043A6.765 6.765 0 0 0 98.633 92.257zM62.994 103.2c1.162 6.945 4.549 7.7 4.549 7.7 4.595 1.879 11.008 1.442 12.957.214 0 0 5.9-3.326 1.524-9.337z"/><path fill="#f2c96d" d="M76.3,88.432c16.543-2.341,28.709-9.518,29.31-18.085h.033V55.26a9.486,9.486,0,0,0-.262-2.221c-1.959-8.227-14.65-14.912-31.247-16.794-2.155-.251-4.387-.415-6.663-.481-.951-.044-1.914-.055-2.888-.055C45.357,35.709,29.209,42,24.734,50.5a10.177,10.177,0,0,0-1.225,4.759V70.347h.044c.306,4.387,3.632,8.4,9.026,11.586Z"/><path fill="#f2c96d" d="M105.64,70V82.688h-.033a10.848,10.848,0,0,1-2.122,5.591l-.021.079-.132.168L101.963,92.9,85.838,98.76c-1.818.524-3.735.987-5.726,1.375l-10.774,1.123-6.631.215H60.269c-20.207-1.006-36.038-8.982-36.716-18.785h-.044V70Z"/><path fill="#bc7e46" d="M62.713,94.943a16.126,16.126,0,0,0-.574-7.088,6.572,6.572,0,0,0-7.119-4.083A15.147,15.147,0,0,1,46.3,82.48a1.5,1.5,0,0,0-2.107.834c-.167.478-.4.932-.612,1.393a14.722,14.722,0,0,0-1.327,4.84,8.35,8.35,0,0,1-.357,3.005,3.123,3.123,0,0,1-2.066,1.7,3,3,0,0,1-1.648-.113c-3.1-1.1-2.8-5.883-2.7-8.486a71.311,71.311,0,0,1,.935-8.757q.142-.892.227-1.792c.238-2.489,1.216-9.784,4.595-10.954,0,0,7.7-3.718,25.716-3.247,0,0,19.117.733,21.841,6.7a9.446,9.446,0,0,1-.268,8.133c-1.071,2.244-2.6,2.577-3.541,4.181a30.432,30.432,0,0,1-4.362,5.808c-2.445,2.573-1.845,7.566-1.06,10.929.436,1.865-6.118.938-4.991,2.486Z"/><path fill="#d69f5f" d="M104.754,59.308,71.615,58.269h-.022L54,57.711h-.01l-30.361-.952-.12-.011V55.26A10.177,10.177,0,0,1,24.734,50.5l35.59,1.127,7.144-15.864c2.276.066,4.508.23,6.663.481L67.118,51.836l38.26,1.2Z"/><path fill="#d69f5f" d="M77.079 53.313a1.5 1.5 0 0 1-1.362-2.125l6.378-13.9a1.5 1.5 0 1 1 2.726 1.25l-6.378 13.9A1.5 1.5 0 0 1 77.079 53.313zM86.646 53.336a1.5 1.5 0 0 1-1.367-2.114l2.549-5.679a1.5 1.5 0 1 1 2.736 1.228L88.016 52.45A1.5 1.5 0 0 1 86.646 53.336z"/><path fill="#d69f5f" d="M101.342 48.04h-.048l-31.4-.984a1.5 1.5 0 1 1 .093-3l31.4.984a1.5 1.5 0 0 1-.046 3zM50.083 52.8a1.5 1.5 0 0 1-1.367-2.115L55.488 35.63a1.5 1.5 0 0 1 2.737 1.23L51.452 51.915A1.5 1.5 0 0 1 50.083 52.8zM40.7 52.5a1.5 1.5 0 0 1-1.367-2.115l6.007-13.348a1.5 1.5 0 0 1 2.736 1.23L42.064 51.619A1.5 1.5 0 0 1 40.7 52.5z"/><path fill="#d69f5f" d="M63.2,46.738h-.048L30.65,45.72a1.5,1.5,0,0,1,.094-3l32.5,1.017a1.5,1.5,0,0,1-.046,3Z"/><circle cx="91.86" cy="99.14" r="6.041" fill="#7b6fce"/><path fill="#7b6fce" d="M97.785,100.357a6.776,6.776,0,1,0-2.856-6.411Z"/><circle cx="90.619" cy="100.738" r="4.443" fill="#8785d3"/><path fill="#8785d3" d="M96.891,99.779a4.984,4.984,0,1,0-2.1-4.716Z"/><path fill="#a2673b" d="M77.657,82.356a30.383,30.383,0,0,0,4.361-5.808c.939-1.6,2.471-1.937,3.542-4.181a9.446,9.446,0,0,0,.268-8.133c-2.724-5.971-21.841-6.7-21.841-6.7-18.017-.471-25.716,3.247-25.716,3.247-3.379,1.17-4.357,8.465-4.595,10.954q-.086.9-.227,1.792a71.311,71.311,0,0,0-.935,8.757c-.091,2.6-.392,7.388,2.7,8.486a2.986,2.986,0,0,0,1.648.113,3.125,3.125,0,0,0,2.066-1.7,8.35,8.35,0,0,0,.357-3.005,14.7,14.7,0,0,1,1.327-4.84c.21-.461.445-.915.612-1.393a1.5,1.5,0,0,1,2.107-.834A15.147,15.147,0,0,0,52.052,80.4a6.572,6.572,0,0,1,7.119,4.083,16.126,16.126,0,0,1,.574,7.088c-.943,14.665,4.83,15.957,4.83,15.957,4.595,1.879,11.008,1.442,12.957.214,0,0,5.9-3.326,1.524-9.337A14.311,14.311,0,0,1,76.6,93.285C75.812,89.922,75.212,84.929,77.657,82.356Z"/><circle cx="69.819" cy="74.067" r="1.46" fill="#b6805a"/><path fill="#b6805a" d="M58.641,76.11c-.036,0-.071,0-.106,0a74.8,74.8,0,0,1-15.991-2.777,1.5,1.5,0,1,1,.85-2.877,71.811,71.811,0,0,0,15.348,2.662,1.5,1.5,0,0,1-.1,3Z"/><ellipse cx="50.935" cy="64.929" fill="#fff" rx="2.091" ry="3.917" transform="rotate(-84.006 50.935 64.93)"/><ellipse cx="61.156" cy="64.14" fill="#fff" rx=".874" ry="1.636" transform="rotate(-84.006 61.156 64.14)"/><path fill="#30384c" d="M107.141,65.369V55.26a10.974,10.974,0,0,0-.283-2.451c0-.019-.006-.037-.01-.055s-.007-.042-.011-.063C104.141,37.93,75.2,34.209,64.58,34.209c-19.409,0-36.341,6.412-41.174,15.6a11.651,11.651,0,0,0-1.4,5.456V65.369c-12.375,5.763-19.19,13.6-19.19,22.138,0,17.09,27.129,30.476,61.761,30.476s61.75-13.386,61.75-30.476C126.33,78.965,119.515,71.132,107.141,65.369ZM96.4,99.141A4.541,4.541,0,1,1,91.86,94.6,4.546,4.546,0,0,1,96.4,99.141Zm.2-5.855a5.265,5.265,0,1,1,2.777,6.262c.007-.136.02-.27.02-.407A7.528,7.528,0,0,0,96.6,93.286Zm7.507-10.7a8.993,8.993,0,0,1-1.34,4.015,8.182,8.182,0,0,0-8.862,5.288,7.514,7.514,0,0,0-9.42,5.675q-1.772.481-3.618.87c-.183-.3-.381-.606-.6-.91a12.815,12.815,0,0,1-2.21-4.582,26.033,26.033,0,0,1-.554-3.178c12.4-1.918,22.026-6.482,26.636-12.261v4.87A1.5,1.5,0,0,0,104.111,82.587ZM25.009,55.26a8.43,8.43,0,0,1,.672-3.229l34.6,1.1h.048a1.5,1.5,0,0,0,1.368-.884l6.725-14.931c.336.014.671.032,1.007.051.638.035,1.275.073,1.91.124.19.015.379.037.569.054L65.75,51.221a1.5,1.5,0,0,0,1.321,2.114L104.1,54.5c.024.252.045.5.045.761v2.529L71.863,56.777a77.758,77.758,0,0,0-7.837-.746c-3.787-.1-7.1-.014-10.021.18l-29-.909Zm62.184,8.352A8.169,8.169,0,0,0,83.477,60.1l18.726.626c-2.561,3.569-7.558,6.743-14.234,9.02A10.266,10.266,0,0,0,87.193,63.612Zm-.418,9.665c8.017-2.393,14.019-5.919,17.366-10.132v5.2c-.015.068-.025,1.825-.03,1.9C103.6,77.6,92.719,84.284,77.474,86.736a5.619,5.619,0,0,1,1.27-3.347,31.813,31.813,0,0,0,4.569-6.083,5.259,5.259,0,0,1,1.173-1.268A8.988,8.988,0,0,0,86.775,73.277ZM33.137,66.1c-3.83-2.309-6.423-5-7.522-7.778l13.844.4c-.958.321-1.55.574-1.76.67C35.322,60.263,33.942,63.11,33.137,66.1Zm-.651,3.091c-.136.862-.234,1.681-.3,2.4q-.082.852-.216,1.7c-.355,2.22-.605,4.172-.765,5.966-3-2.146-5.886-5.181-6.154-9.009-.006-.086-.02-.875-.04-.956V63.15A25.392,25.392,0,0,0,32.486,69.186Zm-7.477,8.379A23.728,23.728,0,0,0,31,82.722c-.106,2.912-.212,8.064,3.721,9.457a4.457,4.457,0,0,0,2.481.163,4.616,4.616,0,0,0,3.084-2.506,5.991,5.991,0,0,0,.475-2.657,72.8,72.8,0,0,0,17.6,3.322c-.039.507-.087.823-.088.833a1.412,1.412,0,0,0-.017.144,38.3,38.3,0,0,0,.267,8.387C39.9,98.532,25.648,91.246,25.049,82.585a1.5,1.5,0,0,0-.04-.252Zm16.167,6.589a14.855,14.855,0,0,1,.807-2.2l.168-.359c.179-.38.357-.762.508-1.149A16.538,16.538,0,0,0,52.25,81.89,5.092,5.092,0,0,1,57.763,85a10.749,10.749,0,0,1,.552,2.49A68.986,68.986,0,0,1,41.176,84.154Zm20.062,7.58a17.53,17.53,0,0,0-.658-7.764,8.1,8.1,0,0,0-8.726-5.054,13.529,13.529,0,0,1-7.842-1.145,3,3,0,0,0-4.2,1.68,8.821,8.821,0,0,1-.375.865l-.186.4A16.084,16.084,0,0,0,37.8,86.049c-.029.337-.033.68-.036,1.025a3.715,3.715,0,0,1-.179,1.458,1.637,1.637,0,0,1-1.046.884,1.459,1.459,0,0,1-.814-.064c-1.941-.688-1.8-4.605-1.719-6.709l.011-.31a68.616,68.616,0,0,1,.918-8.574c.1-.626.178-1.253.239-1.885.5-5.219,1.94-9.108,3.591-9.679a1.625,1.625,0,0,0,.162-.067c.073-.035,7.584-3.566,25.007-3.1,7.034.27,18.829,2.09,20.533,5.827a8,8,0,0,1-.257,6.865,5.938,5.938,0,0,1-1.7,2.062,7.954,7.954,0,0,0-1.785,2.007,28.9,28.9,0,0,1-4.154,5.532c-2.858,3.008-2.357,8.352-1.433,12.3a15.8,15.8,0,0,0,2.706,5.665,4.461,4.461,0,0,1-1.111,7.185c-1.452.915-7.345,1.4-11.589-.334a1,1,0,0,0-.189-.063C64.908,106.065,60.429,104.546,61.238,91.734Zm41.977-40.263-33.81-1.064,5.64-12.538C89.02,39.658,100.053,45.049,103.215,51.471ZM64.58,37.209c.2,0,.392.01.587.011L59.368,50.1l-31.884-1.01C33.236,42.091,48.138,37.209,64.58,37.209Zm0,77.774c-32.4,0-58.761-12.326-58.761-27.476,0-6.926,5.867-13.71,16.19-18.823v14a1.4,1.4,0,0,0,.079.468c1.055,10.295,16.5,18.5,37.129,19.756,1.5,4.723,4.111,5.82,4.879,6.043a21.523,21.523,0,0,0,7.747,1.357c2.732,0,5.17-.468,6.426-1.26a8.274,8.274,0,0,0,3.753-4.975,6.7,6.7,0,0,0-.009-2.82q1.248-.275,2.464-.587a7.534,7.534,0,0,0,14.142,1.8,8.258,8.258,0,0,0,7.062-14.891,11.825,11.825,0,0,0,1.395-4.449,1.505,1.505,0,0,0,.065-.437v-14c10.322,5.113,16.189,11.9,16.189,18.823C123.33,102.657,96.975,114.983,64.58,114.983Z"/></svg>