<svg id="visual" viewBox="0 0 900 150" width="900" height="150" xmlns="http://www.w3.org/2000/svg" xmlns:xlink="http://www.w3.org/1999/xlink" version="1.1"><path d="M0 33L30 45.5C60 58 120 83 180 90.2C240 97.3 300 86.7 360 77.3C420 68 480 60 540 58.2C600 56.3 660 60.7 720 68.3C780 76 840 87 870 92.5L900 98L900 151L870 151C840 151 780 151 720 151C660 151 600 151 540 151C480 151 420 151 360 151C300 151 240 151 180 151C120 151 60 151 30 151L0 151Z" fill="#FF8D00" stroke-linecap="round" stroke-linejoin="miter"></path></svg>