<svg id="visual" viewBox="0 0 900 600" width="900" height="600" xmlns="http://www.w3.org/2000/svg" xmlns:xlink="http://www.w3.org/1999/xlink" version="1.1"><path d="M477 0L382 0L382 50L283 50L283 100L508 100L508 150L259 150L259 200L524 200L524 250L323 250L323 300L271 300L271 350L513 350L513 400L502 400L502 450L505 450L505 500L450 500L450 550L400 550L400 600L0 600L0 550L0 550L0 500L0 500L0 450L0 450L0 400L0 400L0 350L0 350L0 300L0 300L0 250L0 250L0 200L0 200L0 150L0 150L0 100L0 100L0 50L0 50L0 0L0 0Z" fill="#ffb35d"></path><path d="M232 0L378 0L378 50L321 50L321 100L314 100L314 150L284 150L284 200L391 200L391 250L324 250L324 300L237 300L237 350L324 350L324 400L240 400L240 450L282 450L282 500L396 500L396 550L280 550L280 600L0 600L0 550L0 550L0 500L0 500L0 450L0 450L0 400L0 400L0 350L0 350L0 300L0 300L0 250L0 250L0 200L0 200L0 150L0 150L0 100L0 100L0 50L0 50L0 0L0 0Z" fill="#ffa745"></path><path d="M208 0L239 0L239 50L223 50L223 100L176 100L176 150L328 150L328 200L273 200L273 250L267 250L267 300L405 300L405 350L365 350L365 400L214 400L214 450L288 450L288 500L187 500L187 550L167 550L167 600L0 600L0 550L0 550L0 500L0 500L0 450L0 450L0 400L0 400L0 350L0 350L0 300L0 300L0 250L0 250L0 200L0 200L0 150L0 150L0 100L0 100L0 50L0 50L0 0L0 0Z" fill="#ff9a2b"></path><path d="M233 0L162 0L162 50L237 50L237 100L147 100L147 150L253 150L253 200L254 200L254 250L279 250L279 300L189 300L189 350L123 350L123 400L270 400L270 450L327 450L327 500L127 500L127 550L294 550L294 600L0 600L0 550L0 550L0 500L0 500L0 450L0 450L0 400L0 400L0 350L0 350L0 300L0 300L0 250L0 250L0 200L0 200L0 150L0 150L0 100L0 100L0 50L0 50L0 0L0 0Z" fill="#ff8d00"></path><path d="M173 0L176 0L176 50L222 50L222 100L230 100L230 150L175 150L175 200L109 200L109 250L195 250L195 300L262 300L262 350L187 350L187 400L249 400L249 450L169 450L169 500L218 500L218 550L205 550L205 600L0 600L0 550L0 550L0 500L0 500L0 450L0 450L0 400L0 400L0 350L0 350L0 300L0 300L0 250L0 250L0 200L0 200L0 150L0 150L0 100L0 100L0 50L0 50L0 0L0 0Z" fill="#e78002"></path><path d="M84 0L91 0L91 50L120 50L120 100L93 100L93 150L172 150L172 200L111 200L111 250L46 250L46 300L203 300L203 350L48 350L48 400L71 400L71 450L109 450L109 500L133 500L133 550L179 550L179 600L0 600L0 550L0 550L0 500L0 500L0 450L0 450L0 400L0 400L0 350L0 350L0 300L0 300L0 250L0 250L0 200L0 200L0 150L0 150L0 100L0 100L0 50L0 50L0 0L0 0Z" fill="#d07404"></path><path d="M58 0L38 0L38 50L132 50L132 100L72 100L72 150L65 150L65 200L39 200L39 250L22 250L22 300L63 300L63 350L5 350L5 400L132 400L132 450L126 450L126 500L96 500L96 550L52 550L52 600L0 600L0 550L0 550L0 500L0 500L0 450L0 450L0 400L0 400L0 350L0 350L0 300L0 300L0 250L0 250L0 200L0 200L0 150L0 150L0 100L0 100L0 50L0 50L0 0L0 0Z" fill="#ba6805"></path></svg>